<svg xmlns="http://www.w3.org/2000/svg" viewBox="0 0 1200 120" preserveAspectRatio="none">
  <defs><filter id="rough" x="-3%" y="-24%" width="106%" height="148%"><feTurbulence type="fractalNoise" baseFrequency=".011 .088" numOctaves="2" seed="43" result="n"/><feDisplacementMap in="SourceGraphic" in2="n" scale="4" xChannelSelector="R" yChannelSelector="G"/></filter></defs>
  <path d="M19 12 C319 8 772 16 1181 10 C1191 14 1196 25 1194 41 L1196 87 C1195 106 1189 113 1175 114 C806 119 386 112 20 117 C9 113 5 104 7 88 L5 41 C5 25 10 16 19 12 Z" fill="#646c99" opacity=".18"/>
  <path d="M19 8 C319 4 772 12 1181 6 C1191 10 1196 21 1194 37 L1196 83 C1195 102 1189 109 1175 110 C806 115 386 108 20 113 C9 109 5 100 7 84 L5 37 C5 21 10 12 19 8 Z" fill="#d98b93" stroke="#172538" stroke-width="4.7" stroke-linejoin="round" vector-effect="non-scaling-stroke" filter="url(#rough)"/>
  <path d="M22 11 C323 7 773 15 1177 9 C1187 13 1191 23 1190 38 L1192 80 C1191 97 1186 104 1173 105 C804 110 389 103 23 108 C13 104 10 96 11 82 L9 39 C9 24 14 15 22 11 Z" fill="none" stroke="#7c2631" stroke-opacity=".38" stroke-width="1.3" vector-effect="non-scaling-stroke"/>
</svg>
