<svg xmlns="http://www.w3.org/2000/svg" viewBox="0 0 1200 120" preserveAspectRatio="none">
  <defs>
    <linearGradient id="p" x1="0" y1="0" x2="1" y2="1"><stop stop-color="#fffaf0"/><stop offset="1" stop-color="#f5ead5"/></linearGradient>
    <filter id="rough" x="-3%" y="-24%" width="106%" height="148%"><feTurbulence type="fractalNoise" baseFrequency=".011 .085" numOctaves="2" seed="31" result="n"/><feDisplacementMap in="SourceGraphic" in2="n" scale="3.8" xChannelSelector="R" yChannelSelector="G"/></filter>
  </defs>
  <path d="M19 13 C317 9 771 16 1181 11 C1191 14 1196 25 1194 41 L1196 88 C1195 107 1189 114 1175 115 C806 120 386 113 20 118 C9 114 5 105 7 89 L5 41 C5 25 10 16 19 13 Z" fill="#646c99" opacity=".18"/>
  <path d="M19 9 C317 5 771 12 1181 7 C1191 10 1196 21 1194 37 L1196 84 C1195 103 1189 110 1175 111 C806 116 386 109 20 114 C9 110 5 101 7 85 L5 37 C5 21 10 12 19 9 Z" fill="url(#p)"/>
  <path d="M19 9 C317 5 771 12 1181 7 C1191 10 1196 21 1194 37 L1196 84 C1195 103 1189 110 1175 111 C806 116 386 109 20 114 C9 110 5 101 7 85 L5 37 C5 21 10 12 19 9 Z" fill="none" stroke="#172538" stroke-width="4.8" stroke-linejoin="round" vector-effect="non-scaling-stroke" filter="url(#rough)"/>
  <path d="M21 12 C320 8 773 15 1178 10 C1187 13 1191 23 1190 38 L1192 82 C1191 99 1186 106 1173 107 C804 112 388 105 23 110 C13 106 10 98 11 84 L9 39 C9 24 13 15 21 12 Z" fill="none" stroke="#172538" stroke-opacity=".22" stroke-width="1.3" vector-effect="non-scaling-stroke"/>
  <path d="M26 6 C289 11 594 4 903 10 C1004 12 1096 4 1180 9" fill="none" stroke="#172538" stroke-opacity=".42" stroke-width="1.15" stroke-linecap="round" vector-effect="non-scaling-stroke"/>
</svg>
